<svg xmlns="http://www.w3.org/2000/svg" width="65" height="65" viewBox="0 0 65 65" fill="none">
	<path fill-rule="evenodd" clip-rule="evenodd" d="M14.9034 3.09703C12.0446 3.58775 9.59163 5.71133 8.64259 8.51694L8.32478 9.45662L8.28567 30.7968L8.24657 52.137H4.41073C0.764455 52.137 0.560825 52.1511 0.290504 52.423C-0.24957 52.966 -0.0163625 54.7852 0.821904 56.5695C1.19816 57.3702 1.58239 57.8955 2.33818 58.6427C3.52768 59.8186 4.41201 60.3315 5.91947 60.7191C6.98725 60.9936 7.54766 61.0019 25.0915 60.9998C40.6955 60.9979 43.2879 60.9683 44.0733 60.7822C46.6428 60.1731 48.6683 58.2728 49.7647 55.4428L50.1314 54.4962L50.1697 33.156L50.2079 11.8158H56.7859C64.4154 11.8158 63.9959 11.8895 63.9959 10.5509C63.9959 7.49232 61.8056 4.54445 58.6779 3.39386L57.668 3.0224L36.6225 3.00181C25.0474 2.99051 15.2739 3.0334 14.9034 3.09703ZM50.3466 5.63183C49.5244 6.55536 48.7437 8.07755 48.5099 9.21341C48.4007 9.74388 48.3539 16.5062 48.3539 31.7619C48.3539 47.3621 48.3084 53.768 48.194 54.3105C47.5404 57.4048 44.5013 59.5386 41.4676 59.0332C38.7171 58.5748 36.7212 56.4711 36.4289 53.7221C36.2422 51.965 37.7116 52.137 22.8844 52.137H10.1023L10.1067 31.6547C10.1092 19.6925 10.1668 10.7409 10.245 10.1351C10.4229 8.75801 10.9713 7.63431 11.9413 6.65888C12.826 5.76938 13.9675 5.15985 15.1057 4.96953C15.5214 4.90005 23.7851 4.83556 33.4699 4.82641L51.0785 4.80968L50.3466 5.63183ZM57.0233 4.96181C58.8258 5.25593 60.4237 6.48415 61.228 8.19351C61.4333 8.6299 61.6367 9.20526 61.6796 9.47206L61.7579 9.95706H56.0513H50.3447V9.63135C50.3447 9.03325 51.2737 7.33347 51.9864 6.62742C52.8052 5.81642 54.0941 5.14769 55.1795 4.97068C55.6097 4.90047 55.9936 4.83613 56.0327 4.82741C56.0718 4.81883 56.5176 4.87931 57.0233 4.96181ZM17.1332 16.7307C16.7352 16.917 16.1775 17.3454 15.8837 17.6906C15.0083 18.7191 14.9076 19.323 14.9614 23.2227L15.0082 26.6146L15.4467 27.401C15.9233 28.2556 16.8546 29.0034 17.7559 29.255C18.4357 29.445 24.3785 29.445 25.0584 29.255C25.9501 29.0061 26.8913 28.255 27.3525 27.4247C27.7144 26.773 27.7861 26.4671 27.8456 25.32C27.9301 23.6976 27.7427 23.2545 26.9717 23.2545C26.2459 23.2545 26.0703 23.5712 25.9992 25.0093C25.9292 26.4233 25.7117 26.8675 24.8809 27.2934C24.4626 27.5081 23.9694 27.5435 21.4071 27.5435C18.1218 27.5435 17.7535 27.4653 17.1512 26.6399C16.873 26.2584 16.8567 26.0496 16.8567 22.8508C16.8567 18.0846 16.7033 18.2501 21.1222 18.2501H24.0508L24.4134 17.8855C24.6946 17.6026 24.7552 17.4341 24.6835 17.1348C24.5126 16.4212 24.3632 16.3911 20.9889 16.3927C17.9948 16.394 17.8194 16.4094 17.1332 16.7307ZM34.071 16.7091C33.7458 17.176 33.8002 17.6184 34.2243 17.9537C34.5836 18.2379 34.7666 18.2501 38.6844 18.2501C42.6021 18.2501 42.7851 18.2379 43.1445 17.9537C43.5685 17.6184 43.623 17.176 43.2977 16.7091C43.0772 16.3923 43.0618 16.3913 38.6844 16.3913C34.3069 16.3913 34.2915 16.3923 34.071 16.7091ZM24.8991 20.1786L21.8232 23.251L20.7655 22.1804C20.1343 21.5414 19.5902 21.1097 19.4161 21.1097C18.9003 21.1097 18.492 21.5118 18.492 22.0197C18.492 22.422 18.7019 22.6925 20.0518 24.03C21.468 25.4332 21.6479 25.5666 22.0071 25.4793C22.2659 25.4164 23.5934 24.1889 25.8509 21.925C29.5371 18.2282 29.6645 18.0455 29.0148 17.3922C28.3881 16.762 28.176 16.9056 24.8991 20.1786ZM55.0658 17.8497C54.7912 18.1258 54.8614 18.9311 55.1888 19.2602C55.4663 19.5393 55.6148 19.5531 57.9024 19.5105C60.1045 19.4694 60.3404 19.4404 60.5238 19.1879C60.8034 18.8027 60.7756 18.1972 60.4652 17.9148C60.2441 17.7136 59.833 17.6781 57.7208 17.6781C55.9781 17.6781 55.1855 17.7293 55.0658 17.8497ZM30.8634 20.3948C30.483 20.7773 30.5049 21.1912 30.9281 21.6166L31.2771 21.9676H37.0869C42.7372 21.9676 42.9053 21.9596 43.2079 21.6761C43.5887 21.3193 43.6137 20.6682 43.2591 20.3455C43.0259 20.1333 42.3877 20.1088 37.0734 20.1088C31.3373 20.1088 31.1387 20.118 30.8634 20.3948ZM54.8951 21.2527C54.6138 21.5355 54.6107 21.7293 54.6107 38.992C54.6107 51.967 54.6531 56.5248 54.7758 56.7555C54.8665 56.9261 55.4848 57.7937 56.1495 58.6836C57.3299 60.2637 57.3701 60.3006 57.8685 60.2586C58.3398 60.2188 58.4802 60.0803 59.6961 58.4571L61.013 56.6989L60.9758 39.1061L60.9386 21.5134L60.6029 21.2401C60.3003 20.9938 60.016 20.9667 57.7233 20.9667C55.3691 20.9667 55.1583 20.988 54.8951 21.2527ZM59.0667 29.1525C59.1184 32.6323 59.1608 40.1161 59.161 45.7831L59.1611 56.0869L58.5023 56.9783L57.8436 57.8696L57.1514 56.9151L56.4593 55.9604V39.3929V22.8255H57.7159H58.9725L59.0667 29.1525ZM30.8634 24.1124C30.483 24.4948 30.5049 24.9088 30.9281 25.3342L31.2771 25.6852H37.1138C42.7608 25.6852 42.9596 25.6759 43.2348 25.3992C43.5901 25.0419 43.6022 24.3753 43.2591 24.063C43.0259 23.8508 42.3877 23.8264 37.0734 23.8264C31.3373 23.8264 31.1387 23.8355 30.8634 24.1124ZM30.8634 27.8299C30.483 28.2124 30.5049 28.6263 30.9281 29.0517L31.2771 29.4027H37.1138C42.7608 29.4027 42.9596 29.3934 43.2348 29.1168C43.5901 28.7594 43.6022 28.0929 43.2591 27.7806C43.0259 27.5684 42.3877 27.544 37.0734 27.544C31.3373 27.544 31.1387 27.5531 30.8634 27.8299ZM18.0303 33.5488C16.7094 33.7827 15.5287 34.8645 15.1448 36.1924C14.9544 36.8508 14.9227 37.5761 14.9617 40.3807C15.0057 43.5566 15.0288 43.8101 15.3228 44.3636C15.7479 45.1632 16.4377 45.8309 17.2107 46.1906C17.8071 46.4682 18.1017 46.4892 21.4071 46.4892C24.7126 46.4892 25.0072 46.4682 25.6036 46.1906C26.3855 45.8267 27.0766 45.1529 27.4775 44.3636C27.8436 43.6427 28.0164 41.37 27.7438 40.8579C27.5213 40.4397 27.0493 40.2754 26.5617 40.4463C26.1149 40.603 26.0666 40.7586 25.9871 42.2983C25.9257 43.4858 25.7212 43.9512 25.073 44.3782C24.7352 44.6008 24.3043 44.6304 21.4071 44.6304C16.7212 44.6304 16.8772 44.7782 16.8124 40.2761C16.7418 35.3748 16.6238 35.5097 21.0742 35.408C24.1823 35.3371 24.2079 35.3339 24.486 34.9881C24.6796 34.7474 24.7387 34.5264 24.6772 34.2731C24.4903 33.5059 24.3866 33.4796 21.4378 33.4536C19.9349 33.4401 18.4016 33.483 18.0303 33.5488ZM34.4528 33.5509C33.6939 33.8651 33.7223 34.9718 34.497 35.2679C34.7043 35.3472 36.5794 35.408 38.8166 35.408C42.6007 35.408 42.7858 35.3953 43.1445 35.1116C43.607 34.7457 43.641 34.1335 43.2201 33.7501C42.9422 33.4972 42.6301 33.4756 38.8475 33.4479C36.5844 33.4313 34.6311 33.477 34.4528 33.5509ZM24.9409 37.2914L21.9183 40.3186L20.8446 39.2931C20.0299 38.515 19.6736 38.2677 19.3669 38.2677C18.8596 38.2677 18.492 38.664 18.492 39.2109C18.492 39.5546 18.7572 39.8938 19.9496 41.0748C20.7512 41.8688 21.5232 42.559 21.6649 42.6083C21.8069 42.6577 22.0948 42.6069 22.3048 42.4952C22.515 42.3837 24.1748 40.7886 25.9931 38.9506C28.8555 36.057 29.2992 35.5501 29.2992 35.1729C29.2992 34.6393 28.9161 34.2641 28.3712 34.2641C28.0304 34.2641 27.4678 34.7604 24.9409 37.2914ZM31.29 37.2489C30.4962 37.4754 30.4512 38.689 31.2256 38.9851C31.4434 39.0684 33.8679 39.1256 37.1813 39.1256C42.6197 39.1256 42.7799 39.1176 43.1445 38.8292C43.5884 38.478 43.6261 38.0033 43.2474 37.5329L42.9757 37.1953L37.3106 37.1714C34.1948 37.1583 31.4855 37.1931 31.29 37.2489ZM30.9379 41.1785C30.5548 41.4603 30.5884 42.2462 30.9976 42.5795C31.3004 42.826 31.6946 42.8431 37.0457 42.8431C42.6213 42.8431 42.7796 42.8354 43.1445 42.5467C43.5685 42.2114 43.623 41.769 43.2977 41.3022L43.0765 40.9843H37.1392C32.3612 40.9843 31.1506 41.0222 30.9379 41.1785ZM30.8923 44.8815C30.8108 44.9801 30.7009 45.2344 30.648 45.4461C30.5727 45.7471 30.631 45.9111 30.9144 46.1961L31.2771 46.5607H37.0235C42.6216 46.5607 42.7794 46.5531 43.1445 46.2643C43.5685 45.929 43.623 45.4866 43.2977 45.0197L43.0765 44.7019H37.0585C32.4031 44.7019 31.0069 44.7425 30.8923 44.8815ZM34.694 54.8179C34.9567 56.028 35.6625 57.3723 36.5288 58.3131L37.2929 59.1432H22.3055C5.99526 59.1432 6.43622 59.1636 5.04352 58.3429C3.82103 57.6225 2.60452 55.9017 2.34941 54.532L2.24959 53.9958H18.3825H34.5154L34.694 54.8179Z" fill="#60B6E3" />
</svg>
