<svg xmlns="http://www.w3.org/2000/svg" width="65" height="65" viewBox="0 0 65 65" fill="none"><g clip-path="url(#clip0_6104_6441)"><path fill-rule="evenodd" clip-rule="evenodd" d="M10.0226 0.0991573C7.49223 0.551888 5.03383 2.01201 3.43374 4.01253C0.703165 7.42639 0.245819 11.8812 2.22374 15.7979C3.73168 18.7841 6.89322 21.0682 10.2522 21.5982C10.7023 21.6693 13.1912 21.7269 15.8302 21.7274C20.4195 21.7284 20.6075 21.7191 20.9161 21.4763C21.0922 21.3377 21.2995 21.033 21.3767 20.7992C21.5981 20.1279 21.3104 19.5991 20.4578 19.1114C20.0738 18.8915 19.7299 18.6636 19.6937 18.6051C19.6575 18.5466 19.8858 18.1983 20.2012 17.8311C21.9465 15.7985 22.8592 13.0819 22.7154 10.3476C22.6322 8.76383 22.3849 7.75118 21.743 6.3651C20.6495 4.00402 18.9369 2.25313 16.5436 1.04977C15.137 0.342406 14.0451 0.0823988 12.2526 0.0274958C11.393 0.0012324 10.3896 0.0334989 10.0226 0.0991573ZM36.7239 0.147807C31.3215 1.10392 26.8631 4.93725 25.15 10.0991C24.5585 11.8813 24.4871 12.5026 24.3882 16.7259C24.3012 20.4474 24.2693 20.8644 24.0116 21.6659C23.63 22.8525 22.88 24.2696 22.0482 25.3755C20.618 27.2769 20.1973 28.5399 20.2843 30.6705C20.3321 31.839 20.4001 32.1969 20.7354 33.0467C21.4713 34.9117 22.8885 36.4393 24.5858 37.1972C25.0192 37.3907 25.3751 37.5783 25.377 37.614C25.3789 37.6498 24.1567 38.2118 22.6611 38.8629C21.1654 39.514 19.5365 40.3172 19.0412 40.6477C17.5641 41.6333 16.3756 43.121 15.6708 44.8666C15.0529 46.3966 15.0032 47.0456 15.0032 53.5738V59.6341L15.3101 59.9411C15.7003 60.3315 16.2465 60.3423 16.5993 59.9666C16.8602 59.6887 16.8643 59.5993 16.9063 53.3069C16.9476 47.1429 16.9582 46.9015 17.2218 46.1159C17.752 44.5359 18.9538 42.9523 20.2613 42.1105C20.7054 41.8246 27.272 38.8622 27.4618 38.8622C27.486 38.8622 27.5058 40.1003 27.5058 41.6136V44.365H26.1367C24.1109 44.365 23.5944 44.5093 22.8088 45.2951C21.7761 46.3281 21.782 46.0382 22.6332 54.1112C23.0363 57.9335 23.3962 61.3001 23.4331 61.5925L23.5002 62.124H12.557H11.614L11.3072 62.4311C11.1384 62.5999 11.0002 62.8838 11.0002 63.062C11.0002 63.2402 11.1384 63.5241 11.3072 63.693L11.614 64H33.007H64.4L64.7068 63.693C65.098 63.3018 65.098 62.8223 64.7068 62.4311C64.4621 62.1862 64.2722 62.124 63.7691 62.124H63.1384L63.1362 54.6515C63.1339 46.6215 63.1147 46.3364 62.472 44.7446C61.7663 42.9969 60.5799 41.5108 59.1004 40.5213C58.5912 40.1806 57.0218 39.4127 55.4886 38.7539L52.7773 37.5889L53.8008 37.0801C55.0344 36.4668 56.3687 35.1894 56.9686 34.0472C57.9937 32.0955 58.2143 29.9295 57.5799 28.0442C57.1986 26.9107 56.9858 26.5296 56.0435 25.2928C55.2547 24.2575 54.6094 23.0017 54.2442 21.791C54.0092 21.0116 53.9694 20.456 53.8827 16.7259C53.7775 12.2106 53.7002 11.5906 53.0052 9.68567C52.1967 7.46929 51.0248 5.72653 49.1443 3.94312C47.2929 2.18747 45.2202 1.04927 42.6732 0.389555C41.1405 -0.00739706 38.2621 -0.124332 36.7239 0.147807ZM14.1883 2.16559C16.5643 2.80391 18.7354 4.57632 19.8502 6.78769C20.5826 8.24043 20.8154 9.24607 20.8044 10.9104C20.7957 12.2559 20.7532 12.5335 20.3936 13.5925C19.8956 15.0597 19.344 15.9789 18.2598 17.1486C17.796 17.6489 17.3799 18.2046 17.3349 18.3839C17.2435 18.7485 17.4152 19.2972 17.7295 19.6446C17.9317 19.868 17.8227 19.8734 14.1263 19.8205C10.2338 19.7647 10.0239 19.7408 8.62684 19.1956C4.08325 17.4222 1.8189 12.4556 3.43487 7.80746C3.88009 6.52706 4.45171 5.64911 5.56607 4.53454C7.4876 2.61231 9.58867 1.78764 12.2526 1.91008C12.9059 1.9401 13.7769 2.05503 14.1883 2.16559ZM42.3215 2.27514C43.5082 2.5773 46.1348 3.74189 46.1348 3.96588C46.1348 4.02091 45.8112 4.51866 45.4159 5.07194C41.7616 10.1857 36.3858 13.6005 30.3264 14.6576C28.9473 14.8981 26.2551 14.922 26.2566 14.6936C26.2607 14.0647 26.5556 12.1243 26.7629 11.3627C28.1148 6.39399 32.3162 2.6881 37.4142 1.96786C38.7325 1.78164 40.9222 1.91871 42.3215 2.27514ZM49.3988 7.01343C50.2698 8.16402 51.1373 9.90316 51.4988 11.2231C51.7893 12.2839 52.0942 14.6835 51.956 14.8215C51.9059 14.8716 51.2367 14.9031 50.4689 14.8917C48.3601 14.8603 46.8052 14.3709 44.4823 13.0075C43.9263 12.6812 43.8727 12.6723 43.5462 12.8528C43.143 13.0758 42.9393 13.5541 43.0536 14.0099C43.2042 14.6098 45.6976 16.0137 47.2489 16.3718L47.8851 16.5187V19.1277C47.8851 21.6341 47.8734 21.76 47.5852 22.3266C47.0235 23.4313 45.9131 24.5741 44.8438 25.1481L44.4143 25.3786L43.8485 24.8128C43.0843 24.0481 42.6843 23.9512 40.4988 24.0007C38.757 24.0402 38.6534 24.0573 38.1615 24.3833C37.3927 24.8928 36.9451 25.7377 36.9511 26.6685C36.9582 27.7902 37.4569 28.6183 38.4456 29.1506C38.8919 29.3908 39.1412 29.4199 40.7586 29.4199C42.3851 29.4199 42.6242 29.3917 43.0835 29.1458C43.6707 28.8314 44.347 28.1116 44.4534 27.6876C44.4982 27.509 44.7265 27.2999 45.0492 27.1418C45.3367 27.0009 46.0504 26.5423 46.6349 26.1227C47.2194 25.7031 47.714 25.4078 47.7339 25.4665C47.8051 25.6758 47.1352 27.251 46.6885 27.9241C45.7346 29.362 43.9917 30.5725 42.259 31.0008C41.784 31.1182 40.7591 31.1686 38.9458 31.1639C36.4421 31.1575 36.2738 31.1416 35.32 30.8228C33.4592 30.2009 31.9798 28.9484 31.0777 27.2311C30.3244 25.7971 30.2603 25.2866 30.2583 20.7023L30.2564 16.6122L30.7253 16.5327C33.5527 16.0535 37.061 14.7025 39.6519 13.095C42.5433 11.3012 45.5689 8.37275 47.247 5.74379L47.6711 5.07945L48.164 5.55619C48.4349 5.81845 48.9906 6.47416 49.3988 7.01343ZM7.80979 9.96756C6.85747 10.3494 7.10702 11.765 8.12673 11.765C8.63334 11.765 9.04355 11.3546 9.04355 10.8479C9.04355 10.2212 8.37216 9.74207 7.80979 9.96756ZM11.5606 9.96756C10.6083 10.3494 10.8578 11.765 11.8775 11.765C12.3841 11.765 12.7943 11.3546 12.7943 10.8479C12.7943 10.2212 12.123 9.74207 11.5606 9.96756ZM15.3114 9.96756C14.3591 10.3494 14.6086 11.765 15.6283 11.765C16.1349 11.765 16.5451 11.3546 16.5451 10.8479C16.5451 10.2212 15.8737 9.74207 15.3114 9.96756ZM28.2881 20.9468C28.3594 25.7501 28.442 26.2864 29.3939 28.1163C29.9991 29.2802 31.3151 30.7588 32.4037 31.4983C33.2643 32.0828 33.2958 32.2413 32.7627 33.3085C32.2812 34.2721 31.6598 34.861 30.5065 35.4469L29.5688 35.9232H27.9367C26.3051 35.9232 26.3042 35.9231 25.3643 35.4582C23.3657 34.4698 22.1268 32.4934 22.1312 30.3003C22.1339 28.916 22.4853 27.9904 23.5574 26.5434C24.799 24.8678 25.3429 23.8128 25.9106 21.9786C26.1083 21.3397 26.1752 20.6904 26.2228 18.9458L26.2834 16.7259H27.2544H28.2254L28.2881 20.9468ZM52.0126 18.5706C52.0159 22.1323 52.6051 23.8114 55.0086 27.1062C55.9821 28.4407 56.2773 30.3478 55.7663 32.0018C55.2832 33.5655 54.2964 34.7042 52.7679 35.4616C51.8916 35.8958 51.7557 35.9254 50.4549 35.9647C49.1324 36.0046 49.0325 35.9891 48.1352 35.6053C47.0525 35.1422 46.2853 34.625 45.8923 34.0932C45.5421 33.6195 45.0124 32.4873 45.0108 32.2092C45.01 32.0892 45.3176 31.7926 45.7186 31.5262C47.8841 30.0885 49.3793 27.6872 49.7559 25.0426C49.8246 24.5611 49.8817 22.5233 49.8831 20.5143L49.8856 16.8615L50.8545 16.8188C51.3874 16.7954 51.8656 16.7649 51.9172 16.751C51.9689 16.7373 52.0118 17.5559 52.0126 18.5706ZM42.535 26.2399C42.8765 26.698 42.7269 27.2052 42.1836 27.4323C41.6842 27.641 39.9598 27.6637 39.4012 27.4689C38.8212 27.2666 38.6707 26.5563 39.1048 26.0708C39.2782 25.8768 39.4959 25.8527 40.7994 25.8832C42.2419 25.9168 42.3036 25.9295 42.535 26.2399ZM36.2143 32.9881C37.1811 33.1464 40.9973 33.1411 41.9464 32.9801C42.359 32.91 42.7999 32.8401 42.9263 32.8247C43.1024 32.8032 43.2205 32.9725 43.4312 33.5483C43.7659 34.4633 44.3019 35.2628 45.0273 35.9292C45.7286 36.5734 46.1983 36.8528 47.5459 37.4271L48.6446 37.8953L48.6087 38.9729L48.5728 40.0503L47.2509 40.383C41.8326 41.7469 36.1548 41.7784 30.6067 40.4755L29.5063 40.217V39.095V37.973L30.2252 37.6554C31.7756 36.9708 32.2561 36.7107 32.8628 36.2273C33.6144 35.6289 34.3979 34.498 34.7717 33.4724C34.9892 32.876 35.0866 32.7423 35.2631 32.7983C35.3843 32.8369 35.8123 32.9221 36.2143 32.9881ZM54.8001 40.532C56.1621 41.1177 57.5523 41.7738 57.8891 41.99C58.8303 42.5941 59.9868 43.9094 60.4679 44.9228C61.2406 46.5501 61.2583 46.7732 61.2608 54.8391L61.263 62.124H58.4499C56.9027 62.124 55.637 62.0819 55.6372 62.0302C55.6374 61.9786 55.975 58.7623 56.3873 54.883C56.7998 51.0035 57.1371 47.5546 57.1371 47.2188C57.1371 46.1269 56.587 45.2407 55.5743 44.7009C55.1301 44.4642 54.8262 44.4291 52.8549 44.3875L50.6357 44.3407V41.5444V38.7482L51.4797 39.1078C51.9438 39.3055 53.4381 39.9465 54.8001 40.532ZM48.6353 43.1769V44.365H39.0708H29.5063V43.3019C29.5063 42.7173 29.5485 42.2392 29.6 42.2395C29.6515 42.2399 30.3456 42.3786 31.142 42.5477C36.4644 43.6778 42.2681 43.594 47.385 42.3132C48.0383 42.1496 48.5869 42.0098 48.604 42.0023C48.6212 41.9949 48.6353 42.5234 48.6353 43.1769ZM55.0116 46.6161C55.1492 46.7537 55.2643 46.9367 55.2676 47.0226C55.2708 47.1086 54.9209 50.5415 54.4898 54.6515L53.706 62.124H39.5433C29.612 62.124 25.3804 62.0843 25.3804 61.9908C25.3804 61.9177 25.0428 58.6899 24.6302 54.8181C24.2176 50.9463 23.8801 47.5732 23.8801 47.3224C23.8801 47.033 23.9715 46.7748 24.1301 46.6161C24.3774 46.3688 24.5468 46.366 39.5709 46.366C54.5949 46.366 54.7643 46.3688 55.0116 46.6161ZM38.4088 50.8474C37.4758 51.1806 36.8863 51.7044 36.4013 52.6313C36.0111 53.3771 35.9861 53.4965 36.0364 54.3701C36.0964 55.4124 36.2894 55.8785 36.9751 56.6377C37.5966 57.3258 38.28 57.6474 39.2728 57.7187C40.7883 57.8275 41.9606 57.1894 42.7005 55.8532C43.0205 55.2753 43.0712 55.0538 43.069 54.245C43.066 53.1313 42.7852 52.4206 42.0695 51.7146C41.0762 50.7346 39.6627 50.3998 38.4088 50.8474ZM40.5086 52.8557C40.9788 53.1827 41.301 53.918 41.203 54.4408C41.0891 55.0479 40.4676 55.7186 39.9243 55.8206C38.9721 55.9993 38.1032 55.4425 37.935 54.5458C37.8299 53.9851 37.9387 53.5963 38.331 53.13C38.8694 52.49 39.8118 52.3713 40.5086 52.8557Z" fill="#60B6E3"/></g> <defs><clipPath id="clip0_6104_6441"><rect width="65" height="65" fill="white"/></clipPath></defs></svg>