<svg xmlns="http://www.w3.org/2000/svg" width="65" height="65" viewBox="0 0 65 65" fill="none"><path fill-rule="evenodd" clip-rule="evenodd" d="M25.2768 3.11777C24.5599 3.35669 24.0905 3.63554 23.5295 4.15585C22.6056 5.01261 22.5919 5.04366 21.2162 9.39762L20.6236 11.2732H17.4392C14.1011 11.2732 13.3633 11.3458 12.5094 11.7585C11.7062 12.1468 10.6469 13.2796 10.3191 14.101L10.0428 14.7935L10.0089 36.2615C9.98402 51.9709 10.0099 57.9143 10.1054 58.4182C10.3784 59.8591 11.2638 60.9948 12.62 61.6437L13.3645 62H27.6274H41.8902L42.6444 61.6259C43.5526 61.1753 44.357 60.3498 44.7856 59.4282L45.0926 58.7683L45.1238 54.6132L45.1552 50.4581L50.4894 33.6151C53.4233 24.3516 55.8785 16.475 55.9456 16.1118C56.2593 14.4126 55.18 12.2831 53.6259 11.5344C53.3425 11.3978 47.3634 9.43306 40.3391 7.1683C28.7376 3.42779 27.4837 3.04667 26.6513 3.00777C26.085 2.98134 25.56 3.02336 25.2768 3.11777ZM31.9775 6.18689C34.592 7.02852 39.3598 8.56395 42.5727 9.59891C45.7856 10.6339 49.4046 11.7992 50.615 12.1885C53.0957 12.9864 53.6019 13.2824 54.0778 14.2144C54.6501 15.3347 54.8157 14.7046 49.8057 30.4665C47.308 38.325 45.252 44.7913 45.237 44.8362C45.2219 44.8811 45.1833 38.088 45.1511 29.7403L45.0926 14.5626L44.7763 13.9139C44.1339 12.5955 42.999 11.6915 41.6221 11.4012C41.2064 11.3136 38.0737 11.2732 31.6856 11.2732C26.5543 11.2732 22.356 11.2382 22.356 11.1954C22.356 11.1526 22.7145 9.99688 23.1528 8.62731C23.9714 6.06835 24.2228 5.56062 24.8984 5.10183C26.0442 4.3239 26.323 4.36661 31.9775 6.18689ZM41.971 13.2166C42.6233 13.5403 43.2313 14.2224 43.4133 14.8348C43.5122 15.1673 43.5456 20.796 43.5437 36.7943C43.5413 57.4105 43.5325 58.326 43.3312 58.7728C43.0563 59.3823 42.186 60.1453 41.5716 60.3153C41.2085 60.4159 37.5675 60.442 27.3386 60.4173L13.5936 60.3841L13.0447 60.059C12.3532 59.6495 11.8673 58.9802 11.7034 58.2115C11.6118 57.7818 11.5859 51.6358 11.6112 36.3192C11.6451 15.8095 11.6543 15.0094 11.8596 14.6203C12.29 13.8053 13.0298 13.193 13.8227 12.9958C14.0117 12.9488 20.3 12.9186 27.7968 12.9285L41.4272 12.9468L41.971 13.2166ZM26.0786 17.626C21.7197 18.3095 18.1998 21.6257 17.2452 25.9484C16.9955 27.0785 16.9966 29.2907 17.2475 30.4269C18.1168 34.3662 21.1418 37.522 24.9996 38.5146C29.9075 39.7773 35.1547 37.2353 37.2493 32.5802C37.9408 31.0434 38.1021 30.2118 38.1021 28.1821C38.1021 26.613 38.0635 26.2003 37.8452 25.4364C37.3158 23.5835 36.5072 22.1705 35.2004 20.8143C33.8097 19.3714 32.0554 18.3296 30.2021 17.8463C29.1469 17.5712 27.119 17.4628 26.0786 17.626ZM32.1493 20.3942C33.4247 21.1354 34.8533 22.6256 35.4762 23.8642C35.6308 24.1718 35.7574 24.451 35.7574 24.4849C35.7574 24.5187 35.196 24.5464 34.5098 24.5464H33.2624L33.184 24.229C32.9412 23.246 31.8123 21.2364 30.9449 20.2436C30.6939 19.9562 30.4885 19.692 30.4885 19.6563C30.4885 19.564 31.4745 20.002 32.1493 20.3942ZM23.9538 20.4202C23.2167 21.3408 22.4674 22.6425 22.0599 23.7096L21.7406 24.5464H20.5526H19.3645L19.7264 23.8623C20.2077 22.9524 21.1799 21.7802 21.987 21.1367C22.5072 20.7219 24.2866 19.6988 24.4879 19.6988C24.5118 19.6988 24.2715 20.0235 23.9538 20.4202ZM26.8232 22.238V24.5464H25.1546H23.486L23.5659 24.2867C23.6955 23.8657 24.3063 22.6826 24.6833 22.1226C25.0711 21.5463 26.5786 19.9296 26.728 19.9296C26.7803 19.9296 26.8232 20.9684 26.8232 22.238ZM29.8542 21.4593C30.5339 22.3152 31.5194 24.0595 31.5194 24.4064C31.5194 24.5093 31.1084 24.5464 29.9731 24.5464H28.4267V22.2879V20.0294L28.7661 20.2729C28.9528 20.4068 29.4424 20.9407 29.8542 21.4593ZM21.2971 26.8837C21.2395 27.2805 21.2225 28.1894 21.2593 28.9035L21.3262 30.202H20.0739H18.8217L18.7334 29.5383C18.685 29.1733 18.6452 28.563 18.6452 28.1821C18.6452 27.8012 18.685 27.1909 18.7334 26.8259L18.8217 26.1623H20.1117H21.4018L21.2971 26.8837ZM26.8232 28.1821V30.202H24.9354H23.0476L22.9618 29.8846C22.9146 29.71 22.876 28.9439 22.876 28.1821C22.876 27.4204 22.9146 26.6542 22.9618 26.4797L23.0476 26.1623H24.9354H26.8232V28.1821ZM32.1324 26.7682C32.2259 27.5518 32.2264 28.9849 32.1338 29.6664L32.0609 30.202H30.2438H28.4267V28.1821V26.1623H30.2435H32.0601L32.1324 26.7682ZM36.4139 26.4797C36.5282 26.8916 36.5282 29.4726 36.4139 29.8846L36.3258 30.202H35.0394H33.7529V28.1821V26.1623H35.0394H36.3258L36.4139 26.4797ZM22.0572 32.6546C22.434 33.6901 23.1843 34.9937 23.9501 35.9441C24.2698 36.3409 24.5044 36.6654 24.4713 36.6654C24.3375 36.6654 22.9522 35.9189 22.4706 35.5873C21.3369 34.8065 20.2339 33.5384 19.6186 32.3084L19.3732 31.8178H20.563H21.7526L22.0572 32.6546ZM26.8232 34.2094V36.601L26.0688 35.8542C24.9586 34.7549 23.897 33.1529 23.5659 32.0775L23.486 31.8178H25.1546H26.8232V34.2094ZM31.5194 31.982C31.5194 32.6027 29.5795 35.5078 28.7839 36.0787L28.4267 36.3349V34.0764V31.8178H29.9731C31.2336 31.8178 31.5194 31.8482 31.5194 31.982ZM35.7574 31.8882C35.7574 31.927 35.6015 32.2533 35.411 32.6134C34.9281 33.5265 34.057 34.5646 33.2133 35.2325C32.5029 35.7948 30.6148 36.8312 30.504 36.7196C30.4721 36.6875 30.6298 36.4674 30.8545 36.2305C31.6722 35.3682 32.9329 33.1516 33.184 32.1352L33.2624 31.8178H34.5098C35.196 31.8178 35.7574 31.8496 35.7574 31.8882ZM17.353 44.3049C17.2157 44.3718 17.0406 44.5793 16.9637 44.7662C16.8427 45.0607 16.8547 45.1469 17.0539 45.4159L17.2837 45.7259L27.58 45.7568L37.8764 45.7877L38.0769 45.542C38.3758 45.1756 38.3324 44.6899 37.9755 44.407C37.6753 44.1689 37.6233 44.1677 27.6381 44.1756C20.8585 44.1807 17.5216 44.2228 17.353 44.3049ZM17.2192 50.0252C16.8539 50.3368 16.8037 50.7613 17.0889 51.1267L17.3328 51.4391H27.576C37.6665 51.4391 37.8226 51.4357 38.0483 51.2083C38.3779 50.8761 38.3448 50.3551 37.9755 50.0625C37.6754 49.8245 37.6183 49.8233 27.5649 49.8233C18.1041 49.8233 17.4409 49.8362 17.2192 50.0252ZM21.6688 55.7096C21.5283 55.8511 21.4397 56.0943 21.4397 56.3379C21.4397 57.1136 21.2844 57.0947 27.6304 57.0947H33.3121L33.5612 56.8276C33.9028 56.4613 33.8815 56.0137 33.5084 55.7181C33.2123 55.4833 33.0991 55.4788 27.5522 55.4788C22.0505 55.4788 21.8917 55.485 21.6688 55.7096Z" fill="#60B6E3"/></svg>