<svg xmlns="http://www.w3.org/2000/svg" width="65" height="65" viewBox="0 0 65 65" fill="none"><path fill-rule="evenodd" clip-rule="evenodd" d="M18.0659 2.07913C16.5353 2.29085 14.7842 3.058 13.2918 4.17092C12.7281 4.59109 11.9395 5.068 11.5393 5.23073C8.9971 6.26392 7.60348 8.2934 7.60348 10.9619C7.60348 12.2662 7.80426 12.9249 8.81881 14.9494C9.21481 15.7394 9.53873 16.407 9.53873 16.4327C9.53873 16.4585 9.32524 16.5138 9.06447 16.5554C8.16554 16.6993 7.13938 17.7164 6.86506 18.7355C6.43785 20.3223 7.65016 22.0922 9.30722 22.3005L9.92493 22.3782L10.1936 23.2251C10.8822 25.3963 12.3269 27.3422 14.0665 28.4415L14.6183 28.7903L14.6172 30.0606L14.6161 31.3309L10.8376 32.8922C5.55622 35.0745 4.9725 35.3618 4.29916 36.1108C3.99375 36.4507 3.59182 37.0385 3.4058 37.4173L3.06773 38.1059L3.03387 45.3971L3 52.6881L3.30057 52.9887L3.60102 53.2893H7.1747H10.7483V57.3476V61.4061L11.0452 61.703L11.342 62H33.0036H54.6652L54.9621 61.703L55.259 61.4061V57.3476V53.2893H58.8326H62.4062L62.7031 52.9922L63 52.6954V45.6948C63 37.999 62.9987 37.9833 62.2551 36.8118C61.4343 35.5185 61.1826 35.3793 55.1693 32.8932L51.3903 31.3309L51.3896 30.0606L51.389 28.7903L51.9408 28.4415C53.6807 27.3421 55.1262 25.3948 55.8132 23.2251C56.0376 22.5167 56.1279 22.373 56.3657 22.3464C57.4046 22.2302 58.2008 21.7745 58.7051 21.0073C59.7993 19.3424 58.9235 17.0973 56.9865 16.6014L56.3689 16.4434L56.913 15.1763C57.9039 12.8693 58.1217 11.3857 57.7387 9.55404C57.3591 7.73954 56.0658 5.81616 54.5184 4.76506C53.7628 4.25186 51.4349 3.1497 49.9371 2.59597C48.6596 2.12377 47.3749 1.94169 45.9683 2.03352C43.8414 2.17229 42.2222 2.80575 40.2434 4.27315C39.6019 4.74897 39.0031 5.1389 38.9129 5.13975C38.6114 5.14253 37.3486 5.84931 36.7508 6.34994C35.9796 6.99586 35.2438 8.11132 34.94 9.09491C34.6788 9.94082 34.6075 11.6631 34.8051 12.3522L34.9131 12.7291L33.4444 12.7143C32.6365 12.7062 31.692 12.7421 31.3454 12.7938L30.7152 12.8881L30.7831 11.705C30.8316 10.8608 30.7961 10.2619 30.6596 9.61453C30.2634 7.73628 28.9913 5.82911 27.4249 4.76506C26.717 4.28428 24.4518 3.20185 22.9645 2.63383C21.5361 2.0882 19.5916 1.86801 18.0659 2.07913ZM21.4429 4.25101C22.562 4.52999 25.8762 6.06587 26.6211 6.65058C27.441 7.29433 28.2078 8.4237 28.5273 9.45786C29.024 11.0666 28.7125 13.5495 27.9531 14.0337C27.7706 14.15 27.1523 14.5916 26.5792 15.015C26.0061 15.4383 25.4696 15.7846 25.387 15.7846C25.3044 15.7846 24.9024 15.9462 24.4937 16.1436C22.407 17.1519 21.1318 19.2196 21.1309 21.5965C21.1304 22.8516 21.3552 23.5798 22.3656 25.5958C22.7616 26.3859 23.0855 27.0542 23.0855 27.081C23.0855 27.1078 22.7116 27.1508 22.2546 27.1766C21.1906 27.2369 20.4136 27.6843 19.8834 28.542C19.5594 29.0662 19.5174 29.2407 19.5174 30.0606C19.5174 30.8805 19.5594 31.0549 19.8834 31.5792C20.4465 32.4902 21.1777 32.8842 22.4495 32.9621L23.4722 33.0247L23.7401 33.8715C24.43 36.0521 26.0483 38.1774 27.8124 39.2198L28.1655 39.4284V40.6527V41.877L21.0595 43.8485C17.1512 44.9329 13.693 45.9509 13.3746 46.1109C11.7361 46.9342 10.7483 48.5957 10.7483 50.5287V51.3535H7.84538H4.94251V45.2631C4.94251 38.6828 4.95956 38.4828 5.59166 37.6538C6.02673 37.0833 6.42273 36.891 11.5345 34.7684C13.9958 33.7463 16.1322 32.7886 16.2819 32.6402C16.5452 32.379 16.5539 32.2964 16.5501 30.0963C16.5475 28.4973 16.5026 27.7668 16.3989 27.635C16.3179 27.5318 15.9071 27.2395 15.4862 26.9853C13.6157 25.8557 12.1853 23.7798 11.8934 21.7712C11.7254 20.6145 11.4759 20.3911 10.3458 20.3859C9.59702 20.3823 9.4872 20.3491 9.16655 20.0284C8.71939 19.5811 8.71939 19.2472 9.16655 18.7999C9.48611 18.4803 9.59702 18.4463 10.3212 18.4463C11.0102 18.4463 11.1636 18.4048 11.4189 18.1493C11.6738 17.8943 11.7159 17.74 11.7159 17.059C11.7159 16.3141 11.661 16.1559 10.8178 14.472C9.71302 12.2655 9.48164 11.5257 9.58529 10.5302C9.74326 9.01131 10.8763 7.58081 12.3032 7.09882C12.747 6.94892 13.4495 6.5354 14.1515 6.01082C15.8744 4.72345 17.0564 4.21169 18.6513 4.06288C19.7128 3.9638 20.5048 4.01715 21.4429 4.25101ZM48.5364 4.25101C49.6555 4.52999 52.9697 6.06587 53.7146 6.65058C55.0675 7.7128 55.8638 9.41249 55.8638 11.2386C55.8638 12.4087 55.7156 12.9557 54.8995 14.7994C54.3597 16.019 54.2914 16.2675 54.2914 17.0127C54.2914 17.7429 54.3301 17.8911 54.5883 18.1493C54.8436 18.4048 54.997 18.4463 55.6861 18.4463C56.4102 18.4463 56.5211 18.4803 56.8407 18.7999C57.2879 19.2472 57.2879 19.5811 56.8407 20.0284C56.5201 20.3491 56.4102 20.3823 55.6614 20.3859C54.5313 20.3911 54.2818 20.6145 54.1138 21.7712C53.8162 23.8202 52.3572 25.9048 50.435 27.0278C49.977 27.2953 49.5688 27.6016 49.5278 27.7084C49.4868 27.8153 49.4533 28.8994 49.4533 30.1176C49.4533 32.0476 49.4805 32.3658 49.6649 32.5918C49.7956 32.7517 51.6984 33.6125 54.6339 34.8395C57.2505 35.9333 59.5696 36.9385 59.7878 37.0733C60.2757 37.375 60.7597 38.067 60.9332 38.7108C61.0181 39.0261 61.0637 41.3127 61.064 45.2742L61.0648 51.3535H58.1619H55.259V50.5287C55.259 48.5963 54.274 46.9389 52.6326 46.1091C52.3143 45.9482 48.8561 44.9292 44.9478 43.8449L37.8418 41.8733V40.6509C37.8418 39.4284 37.8418 39.4284 38.1948 39.2198C39.9589 38.1774 41.5773 36.0521 42.2672 33.8715L42.5351 33.0247L43.5578 32.9621C44.8296 32.8842 45.5607 32.4902 46.1239 31.5792C46.4478 31.0549 46.4899 30.8805 46.4899 30.0606C46.4899 29.2407 46.4478 29.0662 46.1239 28.542C45.5909 27.6798 44.8297 27.2457 43.7042 27.1622L42.8179 27.0965L43.3641 25.8262C44.357 23.5174 44.5753 22.0336 44.1919 20.2005C43.8006 18.3302 42.4537 16.3714 40.841 15.3274C40.4222 15.0562 39.4976 14.5764 38.7866 14.261L37.4939 13.6878L37.1939 13.0122C36.5245 11.5042 36.4848 10.3495 37.0618 9.1681C37.4875 8.29691 38.496 7.40309 39.3967 7.09882C39.8405 6.94892 40.543 6.5354 41.245 6.01082C42.9679 4.72345 44.1499 4.21169 45.7448 4.06288C46.8063 3.9638 47.5983 4.01715 48.5364 4.25101ZM34.9994 14.8977C36.0999 15.1699 39.4282 16.7165 40.1748 17.3026C40.9883 17.9413 41.7556 19.0731 42.074 20.1043C42.3991 21.1575 42.3999 22.6332 42.0757 23.6661C41.6814 24.922 41.6628 24.9234 41.1091 23.7417C40.2911 21.9955 39.9692 21.9342 38.2445 23.1959C36.6891 24.3338 35.5846 24.8393 34.1387 25.0757C31.946 25.4342 30.0639 24.8793 27.7627 23.1959C26.0323 21.93 25.7729 21.9808 24.9051 23.7559C24.6088 24.3623 24.3315 24.8583 24.2892 24.8583C24.1726 24.8583 23.3631 23.0581 23.201 22.4387C23.007 21.6969 23.1405 20.5815 23.5151 19.8146C23.9199 18.986 24.9558 18.0458 25.7752 17.7632C26.6459 17.463 27.901 17.493 28.8001 17.8355C29.5268 18.1125 30.6401 19.0212 30.9405 19.5828C31.0333 19.7561 31.1643 19.8981 31.2315 19.8981C31.2988 19.8981 31.6967 19.6746 32.1158 19.4015C32.9695 18.8451 32.9667 18.8996 32.1897 17.9326C31.4601 17.0246 30.3827 16.2764 29.1936 15.8519C28.9766 15.7744 28.9952 15.7422 29.375 15.5383C30.9676 14.6838 33.1361 14.4369 34.9994 14.8977ZM27.336 25.3446C28.2176 25.963 29.5761 26.6058 30.5846 26.8815C31.1634 27.0398 31.8173 27.0965 33.0641 27.0965C34.5028 27.0965 34.8932 27.0539 35.6604 26.8129C36.7515 26.4702 37.7844 25.9623 38.7202 25.3083C39.1035 25.0403 39.4375 24.8431 39.4623 24.87C39.4871 24.8968 39.7857 25.4758 40.126 26.1567L40.7446 27.3946L40.7404 29.4233C40.7354 31.8258 40.5542 32.9932 39.9991 34.2007C38.9098 36.5699 36.7532 38.1985 34.1387 38.6258C33.1187 38.7925 32.8886 38.7925 31.8686 38.6258C29.2844 38.2034 27.1916 36.6539 26.0821 34.3416C25.4557 33.036 25.2721 31.9292 25.2669 29.4269L25.2626 27.4019L25.895 26.1301C26.2427 25.4306 26.5533 24.8583 26.5853 24.8583C26.6171 24.8583 26.9549 25.0771 27.336 25.3446ZM23.3274 30.0606V31.0285H22.7133C22.1959 31.0285 22.0436 30.9728 21.7457 30.6748C21.5512 30.4803 21.3921 30.204 21.3921 30.0606C21.3921 29.9172 21.5512 29.6409 21.7457 29.4464C22.0436 29.1484 22.1959 29.0927 22.7133 29.0927H23.3274V30.0606ZM44.2616 29.4464C44.4561 29.6409 44.6151 29.9172 44.6151 30.0606C44.6151 30.204 44.4561 30.4803 44.2616 30.6748C43.9637 30.9728 43.8114 31.0285 43.294 31.0285H42.6799V30.0606V29.0927H43.294C43.8114 29.0927 43.9637 29.1484 44.2616 29.4464ZM31.0684 40.5256C32.0916 40.7507 33.9313 40.7498 34.9994 40.5235C35.4649 40.4248 35.8596 40.3441 35.8763 40.3441C35.8928 40.3441 35.9065 40.7669 35.9065 41.2837V42.2231L34.4551 43.6711L33.0036 45.1192L31.5522 43.6711L30.1008 42.2231V41.2837C30.1008 40.7669 30.1416 40.3461 30.1915 40.3484C30.2413 40.3506 30.636 40.4305 31.0684 40.5256ZM33.0036 47.4821C33.3656 47.4821 33.6152 47.2788 35.2931 45.6182L37.1765 43.7544L44.3088 45.7431C48.7104 46.9705 51.6363 47.8464 51.9512 48.0309C52.2317 48.1953 52.5802 48.497 52.7255 48.7011C53.2889 49.4926 53.3238 49.8663 53.3238 55.1232V60.0643H50.4209H47.518V56.1928V52.3214H46.5504H45.5828V56.1928V60.0643H33.0036H20.4245V56.1928V52.3214H19.4569H18.4893V56.1928V60.0643H15.5864H12.6835V55.126C12.6835 49.5159 12.715 49.2654 13.5206 48.4595C13.7741 48.2059 14.2202 47.9079 14.5118 47.7974C14.8035 47.6868 18.1445 46.733 21.9364 45.6779L28.8307 43.7596L30.7141 45.6208C32.3914 47.2786 32.6417 47.4821 33.0036 47.4821Z" fill="#60B6E3"/></svg>