<svg xmlns="http://www.w3.org/2000/svg" width="65" height="65" viewBox="0 0 65 65" fill="none"><g clip-path="url(#clip0_6104_6436)"><path fill-rule="evenodd" clip-rule="evenodd" d="M21.5212 3.16696C18.7756 3.83147 16.4379 5.9784 15.4384 8.75313L15.0468 9.84041L15.0071 15.8318C14.9771 20.3524 15.0064 21.962 15.1265 22.3882C15.3288 23.1066 16.13 23.9206 16.8431 24.1324L17.3702 24.289L17.5828 25.2654C17.8436 26.4629 18.7066 28.2658 19.4852 29.2394C19.8047 29.639 20.4362 30.2635 20.8884 30.6272L21.7104 31.2883L21.6788 32.8654L21.6473 34.4424L20.251 34.733C19.4831 34.8928 17.1983 35.3622 15.1737 35.776C13.1492 36.1898 11.2071 36.6196 10.858 36.7311C8.483 37.4894 6.36209 39.4484 5.44817 41.7279C5.11307 42.5638 4.8389 44.0505 4.83319 45.0626C4.82925 45.757 4.86517 45.8705 5.16321 46.1034C5.88787 46.6701 6.72905 46.1892 6.73717 45.2036C6.75938 42.4811 8.17341 40.0957 10.4138 39.0019C11.1594 38.6378 11.9505 38.4146 14.0638 37.9721C15.5478 37.6615 16.8695 37.4073 17.0012 37.4073C17.2639 37.4073 17.2521 37.3824 18.4155 40.3546C19.3306 42.6928 19.8417 43.4643 20.7763 43.9188C21.377 44.2109 21.5758 44.2456 22.3389 44.1914L23.2134 44.1292L23.9069 44.837L24.6005 45.5449L23.9498 49.1721L23.2993 52.7993H18.8239H14.3487V50.5858C14.3487 48.4036 14.3442 48.3677 14.0371 48.0625C13.654 47.6816 13.1009 47.6595 12.7225 48.01C12.4566 48.2562 12.4447 48.3647 12.4447 50.5333V52.7993H9.32202H6.19923L6.27336 51.9477C6.53484 48.9451 6.53446 48.932 6.18159 48.5813C5.77997 48.1821 5.32683 48.168 4.89652 48.5413C4.5929 48.8047 4.56053 48.9387 4.44807 50.4022C4.38131 51.2696 4.32546 52.1559 4.32393 52.3718L4.32101 52.7644L3.20807 52.8275C1.60339 52.9183 0.677801 53.4622 0.202439 54.5931C-0.0380975 55.1655 -0.0751618 58.3699 0.150143 59.1174C0.348919 59.7767 0.913514 60.4212 1.56849 60.7363L2.11633 61H32.5H62.8837L63.4315 60.7363C64.0865 60.4212 64.6511 59.7767 64.8499 59.1174C65.0752 58.3699 65.0381 55.1655 64.7976 54.5931C64.5474 53.9979 64.0558 53.482 63.408 53.1352C62.9375 52.8832 62.6841 52.8603 59.9491 52.8212L56.9979 52.779V45.2741C56.9979 40.1689 56.9543 37.6811 56.8612 37.4936C56.7861 37.3421 56.1769 36.7039 55.5075 36.0755L54.2904 34.9328L54.4384 34.5111C54.5197 34.2792 54.5862 33.7683 54.5862 33.376C54.5862 32.2429 54.1903 31.6193 52.3214 29.808C50.4458 27.9904 50.017 27.7572 48.7028 27.8404C46.6749 27.9688 45.4043 29.8165 45.9617 31.8267C46.1026 32.3347 46.3842 32.684 47.8489 34.1671C48.7957 35.126 49.7601 36.0271 49.9919 36.1694C50.5221 36.4951 51.8288 36.6155 52.4878 36.3994L52.9647 36.2429L53.9659 37.2322L54.967 38.2214V45.5137V52.8059L53.0313 52.7711L51.0956 52.7362L50.8203 48.5728C50.6688 46.2829 50.483 43.9918 50.4074 43.4813C49.9842 40.6279 47.7827 37.9123 45.0771 36.9067C44.6821 36.7598 41.9619 36.1419 39.0323 35.5335L33.7059 34.4273L33.6704 32.846L33.6352 31.2646L34.1579 30.9044C34.8754 30.4102 36.1543 29.0072 36.679 28.1384C37.1795 27.3097 37.7686 25.7336 37.8978 24.877C37.9812 24.3239 38.0165 24.2803 38.4817 24.1558C39.1176 23.9856 39.8387 23.3544 40.1331 22.7103C40.3454 22.2456 40.3645 21.7474 40.367 16.5788C40.3697 11.22 40.3569 10.9059 40.098 9.95522C39.9481 9.40452 39.8486 8.73105 39.8759 8.45261C39.9032 8.17505 39.9255 7.1815 39.9255 6.24473C39.9255 4.31821 39.8221 3.9927 39.0153 3.38106L38.5492 3.02755L30.4155 3.00509C23.6611 2.98654 22.153 3.01392 21.5212 3.16696ZM37.8935 6.74939C37.8923 8.4839 37.8748 8.61183 37.5555 9.2154C37.1003 10.0753 36.2641 10.8834 35.4194 11.2794L34.7213 11.6067L27.476 11.6698L20.2307 11.7329L19.6101 12.1144C18.7343 12.6527 18.2881 13.3344 18.1597 14.3306C18.1023 14.7755 17.9991 15.2812 17.9304 15.4547C17.7962 15.7942 17.1766 16.464 16.997 16.464C16.849 16.464 16.8645 11.7208 17.0162 10.5343C17.3436 7.9747 19.4453 5.65429 21.9934 5.03898C22.5048 4.91547 24.4597 4.88241 30.2787 4.89869L37.8946 4.92001L37.8935 6.74939ZM38.4658 13.9408C38.4658 15.4537 38.4175 16.464 38.345 16.464C38.0872 16.464 37.33 15.5304 37.1412 14.9797C37.032 14.6611 36.9426 14.0286 36.9426 13.574V12.7476L37.6725 12.0883C38.074 11.7257 38.4167 11.4264 38.4341 11.4233C38.4515 11.4201 38.4658 12.5529 38.4658 13.9408ZM35.455 15.9975C35.9015 16.9667 36.6937 17.7764 37.6569 18.2476L38.4658 18.6435V20.2421C38.4658 21.3542 38.4157 21.9092 38.3009 22.065C38.1903 22.2155 37.8762 22.3196 37.3445 22.3819C36.9091 22.4329 36.468 22.5592 36.3641 22.6625C36.2511 22.7746 36.1247 23.2918 36.0497 23.9477C35.6185 27.7198 32.8156 30.4913 28.8066 31.1096C25.4697 31.6242 21.6615 29.7117 20.1683 26.7714C19.7235 25.8957 19.299 24.3417 19.299 23.5892C19.299 22.8391 18.9243 22.3938 18.2933 22.3938C17.598 22.3938 17.0517 22.1699 16.9653 21.8496C16.9243 21.6978 16.89 20.9107 16.8891 20.1005L16.8873 18.6274L17.5689 18.3171C18.9547 17.6866 19.8828 16.4205 20.0241 14.9681C20.0695 14.5013 20.1827 14.1584 20.353 13.9723L20.6127 13.6884L27.0957 13.6759C30.6615 13.6691 33.8931 13.6265 34.2771 13.5813L34.9752 13.4992L35.0539 14.3982C35.1021 14.9497 35.2572 15.568 35.455 15.9975ZM51.0585 31.3252C52.5667 32.8244 52.6822 32.9731 52.6822 33.4166C52.6822 34.0797 52.13 34.6317 51.4666 34.6317C51.034 34.6317 50.868 34.5093 49.5421 33.2123C48.029 31.7323 47.7319 31.3331 47.7319 30.7803C47.7319 30.2654 48.3657 29.7113 48.9544 29.7113C49.4005 29.7113 49.5502 29.8261 51.0585 31.3252ZM24.9475 32.7549C26.7336 33.2604 29.2046 33.1974 30.9463 32.6018C31.334 32.4692 31.676 32.3607 31.7062 32.3607C31.7365 32.3607 31.7418 33.2266 31.7181 34.2847C31.6776 36.0884 31.6529 36.2534 31.3221 36.923C30.6536 38.2758 29.462 39.056 27.9304 39.1438C26.1898 39.2435 24.8637 38.4815 24.1023 36.944C23.7045 36.1409 23.6887 36.0489 23.6363 34.2171C23.5845 32.4027 23.5924 32.3253 23.8206 32.4123C23.9517 32.4624 24.4588 32.6165 24.9475 32.7549ZM21.9721 36.8711C22.414 38.2275 23.4961 39.629 24.5967 40.2701C24.8943 40.4436 25.1379 40.6028 25.1379 40.6241C25.1379 40.6454 24.5811 41.021 23.9003 41.4588C22.8752 42.118 22.5682 42.2555 22.1122 42.2597C21.6765 42.2636 21.5046 42.198 21.2872 41.945C21.0061 41.6179 19.0915 37.0669 19.1927 36.9662C19.2577 36.9016 21.2907 36.4357 21.6056 36.4131C21.745 36.4031 21.8709 36.5605 21.9721 36.8711ZM35.0102 36.6627L36.2608 36.9274L35.3246 39.2806C33.9003 42.861 33.7147 42.9472 31.1393 41.2234L30.2228 40.61L31.0249 40.0858C31.4661 39.7975 32.07 39.2488 32.3667 38.8664C32.863 38.227 33.5053 36.9317 33.5124 36.5557C33.5164 36.3503 33.5433 36.3522 35.0102 36.6627ZM44.1601 38.6268C46.262 39.2806 48.1245 41.4582 48.4777 43.6751C48.5927 44.3968 49.1281 51.6868 49.1281 52.5307C49.1281 52.7973 49.1049 52.7993 46.0818 52.7993H43.0354L43.0335 50.6861C43.0322 49.2434 42.9811 48.4734 42.8722 48.2596C42.68 47.8821 42.1808 47.6853 41.7121 47.8022C41.132 47.9469 41.0045 48.483 41.0045 50.7767V52.7993H36.5754C33.1484 52.7993 32.133 52.7636 32.0872 52.6416C32.0546 52.5549 31.7519 50.9072 31.4142 48.9801L30.8005 45.4764L31.4698 44.8027L32.1391 44.1291L33.0138 44.1913C33.7794 44.2458 33.9755 44.2112 34.5847 43.915C34.9676 43.7287 35.4353 43.3948 35.6241 43.1729C36.0121 42.7165 36.0668 42.5994 37.3157 39.5443L38.2216 37.3286L40.8506 37.8718C42.2966 38.1707 43.7858 38.5103 44.1601 38.6268ZM29.1853 42.2613L30.4985 43.1084L29.9497 43.6643L29.4008 44.2202H27.6766H25.9523L25.4101 43.671L24.8677 43.1216L26.2405 42.23C26.9955 41.7396 27.6714 41.3555 27.7426 41.3764C27.8138 41.3972 28.463 41.7955 29.1853 42.2613ZM28.9956 46.4596C29.1674 47.3121 30.0883 52.5406 30.0883 52.6629C30.0883 52.7559 29.3164 52.7993 27.6629 52.7993H25.2373L25.3043 52.5155C25.3413 52.3593 25.6156 50.8548 25.9141 49.1721L26.4569 46.1126H27.6913H28.9257L28.9956 46.4596ZM62.8368 55.0703C63.0633 55.2954 63.0907 55.4908 63.0907 56.8826C63.0907 58.2698 63.0615 58.4795 62.8276 58.7751L62.5646 59.1075H32.5H2.43543L2.17243 58.7751C1.93849 58.4795 1.9093 58.2698 1.9093 56.8826C1.9093 55.4908 1.93672 55.2954 2.16316 55.0703C2.41563 54.8193 2.58623 54.818 32.5 54.818C62.4138 54.818 62.5844 54.8193 62.8368 55.0703Z" fill="#60B6E3"/></g> <defs><clipPath id="clip0_6104_6436"><rect width="65" height="65" fill="white"/></clipPath></defs></svg>