<svg xmlns="http://www.w3.org/2000/svg" width="65" height="65" viewBox="0 0 65 65" fill="none"><path fill-rule="evenodd" clip-rule="evenodd" d="M56.9902 4.00625V5.00686H58.2721H59.5541L54.7708 9.78966L49.9876 14.5726L45.698 10.29C41.7255 6.32392 41.3767 6.00747 40.9779 6.00747C40.5772 6.00747 40.1499 6.40472 34.7597 11.7898L28.9721 17.5721L25.6824 14.2913C22.6579 11.275 22.3581 11.0105 21.963 11.0105C21.5617 11.0105 21.0572 11.4862 14.3704 18.1687L7.2077 25.3267L7.9237 26.0503L8.63969 26.7737L15.3015 20.1134L21.9631 13.4532L25.2535 16.7345C28.2767 19.7498 28.5786 20.0161 28.973 20.0161C29.3722 20.0161 29.8063 19.6123 35.1903 14.2334L40.9784 8.45072L45.2672 12.7325C49.2379 16.6968 49.5878 17.0142 49.9861 17.0142C50.386 17.0142 50.7884 16.6425 55.7047 11.7317L60.993 6.44924V7.72928V9.00931H61.9937H62.9944V6.31454C62.9944 2.7147 63.2853 3.00563 59.6852 3.00563H56.9902V4.00625ZM48.291 20.3231L47.9839 20.6301V28.5213V36.4125L48.291 36.7194C48.5955 37.024 48.6174 37.0265 50.986 37.0265C53.3547 37.0265 53.3766 37.024 53.681 36.7194L53.9881 36.4125V28.5213V20.6301L53.681 20.3231C53.3766 20.0186 53.3547 20.0161 50.986 20.0161C48.6174 20.0161 48.5955 20.0186 48.291 20.3231ZM30.2785 22.3243L29.9714 22.6313V29.5219V36.4125L30.2785 36.7194C30.583 37.024 30.6048 37.0265 32.9735 37.0265C35.3421 37.0265 35.364 37.024 35.6685 36.7194L35.9756 36.4125V29.5219V22.6313L35.6685 22.3243C35.364 22.0198 35.3421 22.0173 32.9735 22.0173C30.6048 22.0173 30.583 22.0198 30.2785 22.3243ZM51.9867 28.5213V35.0253H50.986H49.9853V28.5213V22.0173H50.986H51.9867V28.5213ZM33.9742 29.5219V35.0253H32.9735H31.9728V29.5219V24.0185H32.9735H33.9742V29.5219ZM39.2848 25.3262L38.9777 25.6331V31.0228V36.4125L39.2848 36.7194C39.5892 37.024 39.6111 37.0265 41.9798 37.0265C44.3484 37.0265 44.3703 37.024 44.6748 36.7194L44.9818 36.4125V31.0228V25.6331L44.6748 25.3262C44.3703 25.0216 44.3484 25.0191 41.9798 25.0191C39.6111 25.0191 39.5892 25.0216 39.2848 25.3262ZM42.9805 31.0228V35.0253H41.9798H40.9791V31.0228V27.0203H41.9798H42.9805V31.0228ZM21.2722 29.3286L20.9651 29.6356V33.024V36.4125L21.2722 36.7194C21.5767 37.024 21.5986 37.0265 23.9672 37.0265C26.3359 37.0265 26.3578 37.024 26.6622 36.7194L26.9693 36.4125V33.024V29.6356L26.6622 29.3286C26.3578 29.0241 26.3359 29.0216 23.9672 29.0216C21.5986 29.0216 21.5767 29.0241 21.2722 29.3286ZM24.9679 33.024V35.0253H23.9672H22.9665V33.024V31.0228H23.9672H24.9679V33.024ZM57.1676 37.6963C56.8866 37.7881 55.1654 38.6302 53.3424 39.5677L50.028 41.2721L49.3107 40.5773C48.8872 40.1672 48.2509 39.7204 47.757 39.4865C46.965 39.1113 46.8426 39.0902 45.4449 39.0902H43.9691L39.0586 41.5802L34.1481 44.0699L33.3741 43.9998C32.6813 43.937 32.2561 43.7471 29.3157 42.1881C25.7301 40.2871 24.9108 39.9246 23.4043 39.5737C21.9476 39.2341 19.1594 39.256 17.7129 39.6182C16.4798 39.927 14.9173 40.5653 14.0242 41.1251C13.5844 41.4007 13.3757 41.472 13.3178 41.3664C13.2725 41.284 13.1117 40.5974 12.9602 39.8407C12.6841 38.461 12.5 38.0858 12.0064 37.8969C11.6867 37.7747 3.79157 39.4432 3.36115 39.7241C3.20742 39.8243 3.04555 40.0502 3.00152 40.2258C2.90533 40.6092 7.39608 62.21 7.66014 62.6339C7.75583 62.7876 7.98236 62.9506 8.16349 62.996C8.53662 63.0897 16.1792 61.5001 16.7417 61.2119C17.2023 60.976 17.2768 60.5765 17.0731 59.4367C16.9787 58.9089 16.9012 58.4228 16.9007 58.3566C16.8996 58.2 19.9756 57.5479 20.7392 57.5429C21.0622 57.5408 24.4114 57.8818 28.1819 58.3008C36.8247 59.2611 37.5806 59.245 40.1727 58.0447C41.0784 57.6254 61.3338 44.1732 62.0902 43.4888C62.2465 43.3474 62.5207 42.9327 62.6994 42.5674C63.2873 41.3656 62.9811 40.0101 61.8695 38.894C61.0036 38.0246 60.0391 37.6158 58.7414 37.5682C58.0877 37.5442 57.4815 37.5935 57.1676 37.6963ZM59.6894 39.8262C60.6699 40.2827 61.1371 41.0088 60.8822 41.6795C60.7888 41.9249 58.2261 43.706 50.721 48.7414C45.201 52.4451 40.371 55.6573 39.9875 55.8797C39.0133 56.4446 37.9775 56.7725 36.6636 56.9317C35.6156 57.0585 35.0966 57.0185 29.1583 56.3528C20.8986 55.4269 20.4111 55.4061 18.1719 55.8859C16.9735 56.1427 16.4266 56.2135 16.392 56.1162C16.3034 55.8677 13.8352 44.0312 13.8352 43.8549C13.8352 43.6452 15.12 42.799 16.2118 42.2896C17.6622 41.6128 18.8305 41.3713 20.6524 41.3713C23.2782 41.3713 23.5797 41.4815 29.7948 44.7119L32.1823 45.9531L33.2972 45.9965C34.7572 46.0534 34.9083 45.994 40.1666 43.2953C43.9832 41.3366 44.4775 41.1155 45.1612 41.0613C46.4345 40.9601 47.5367 41.4261 48.2654 42.3731C48.6728 42.9026 48.7313 43.634 48.3905 43.9353C48.0225 44.2607 36.9645 50.7977 36.1632 51.1637C34.8627 51.7576 33.7893 51.9508 32.1958 51.8776C30.9658 51.8212 30.1497 51.6585 25.8435 50.6114C23.126 49.9505 20.815 49.4097 20.7078 49.4094C20.5699 49.4092 20.4512 49.6672 20.3004 50.2951C20.1835 50.7825 20.1138 51.2232 20.1454 51.2746C20.1772 51.3259 20.5295 51.4396 20.9281 51.5272C21.3269 51.6148 23.6232 52.1595 26.0312 52.7376C28.4391 53.3158 30.9061 53.8457 31.5134 53.9152C33.279 54.1172 35.6262 53.7171 37.1438 52.9554C37.9216 52.5649 48.5745 46.2719 49.3279 45.758C50.012 45.291 50.4408 44.6514 50.6269 43.82L50.7755 43.1562L54.1642 41.4194C56.0282 40.4643 57.6657 39.6545 57.8033 39.6199C58.3958 39.471 59.0894 39.5469 59.6894 39.8262ZM10.9582 40.1149C10.9582 40.1625 11.8588 44.4856 12.9596 49.7218C14.0603 54.958 14.961 59.327 14.961 59.4308C14.961 59.5759 14.3074 59.758 12.138 60.2176C10.5853 60.5465 9.29603 60.796 9.27301 60.772C9.18357 60.6794 5.17929 41.3873 5.23733 41.3292C5.28486 41.2818 10.4358 40.1032 10.8644 40.0418C10.9159 40.0343 10.9582 40.0672 10.9582 40.1149ZM8.33136 42.6222C7.88417 42.7256 7.50378 42.8227 7.48602 42.8378C7.45399 42.8652 7.84064 44.6879 7.89205 44.7522C7.92682 44.7957 9.74046 44.4145 9.80488 44.3502C9.91383 44.2413 9.42261 42.4058 9.28827 42.4194C9.20909 42.4274 8.77854 42.5187 8.33136 42.6222Z" fill="#60B6E3"/></svg>