<svg xmlns="http://www.w3.org/2000/svg" width="65" height="65" viewBox="0 0 65 65" fill="none"><path fill-rule="evenodd" clip-rule="evenodd" d="M34.0741 6.04286C32.5316 6.2895 30.2689 6.92838 29.353 7.37581C27.769 8.14972 26.3513 9.41014 25.4704 10.8275C25.3321 11.05 25.1584 11.1428 24.7713 11.2011C21.9485 11.6263 19.7699 14.1358 19.7837 16.9463C19.7855 17.3204 19.9313 18.6147 20.1077 19.8226L20.4285 22.0186L20.103 22.5187C19.6206 23.2599 19.5303 23.7525 19.577 25.3918C19.6127 26.6501 19.6551 26.9305 19.8724 27.3444C20.4397 28.4259 21.6345 29.1698 22.8035 29.1698H23.3519L23.4777 29.8174C23.9249 32.1192 24.6734 34.3704 25.413 35.6379C25.6635 36.0673 26.2644 36.8329 26.7483 37.3391L27.6279 38.2596V39.2878V40.316L19.1357 44.586C11.1087 48.6221 10.6009 48.8951 9.86649 49.5708C8.89519 50.4645 8.09171 51.6866 7.7398 52.8055C7.49339 53.5891 7 56.4996 7 57.1696C7 57.3223 7.12388 57.5715 7.27523 57.7235L7.55034 58H33.0091H58.4678L58.743 57.7235C59.0752 57.3898 59.0773 57.2993 58.7959 55.3315C58.39 52.4947 57.7042 51 56.1517 49.57C55.4163 48.8926 54.9196 48.6256 46.8825 44.5858L38.3903 40.3173V39.2884V38.2596L39.2699 37.3391C39.7537 36.8329 40.3546 36.0673 40.6052 35.6379C41.3448 34.3704 42.0933 32.1192 42.5405 29.8174L42.6663 29.1698H43.2146C44.3837 29.1698 45.5784 28.4259 46.1458 27.3444C46.3631 26.9305 46.4054 26.6501 46.4412 25.3918C46.488 23.7482 46.3973 23.2565 45.9114 22.5187L45.582 22.0186L45.919 20.6672C47.0098 16.2932 46.0158 12.5722 42.8473 9.16891C41.6523 7.88529 39.7465 6.76339 37.964 6.29434C37.1144 6.07068 34.8257 5.9227 34.0741 6.04286ZM36.5288 7.89059C38.941 8.22754 40.9108 9.44989 42.5383 11.6195C43.3281 12.6725 43.8867 13.796 44.2371 15.0363C44.6095 16.3552 44.6048 18.4466 44.2258 19.9633L43.9515 21.0614H43.4131H42.8746V19.9864C42.8746 19.009 42.8507 18.8874 42.6119 18.6475C42.3512 18.3856 42.3244 18.3832 39.0525 18.3253C35.5437 18.2633 34.9226 18.1879 33.1801 17.6127C31.2583 16.9783 29.4667 15.9383 27.9994 14.6054C27.0959 13.7846 26.8473 13.6655 26.4135 13.8459C26.0804 13.9847 26.0295 14.0606 24.3337 16.955L23.1436 18.9864V20.0238V21.0614H22.6479C22.069 21.0614 22.147 21.2718 21.7923 18.7555C21.5177 16.8074 21.5557 16.2106 22.0155 15.2489C22.6303 13.9635 23.871 13.1224 25.3467 12.9905C25.7689 12.9528 26.1973 12.8793 26.2985 12.8273C26.3998 12.7753 26.6335 12.4656 26.818 12.139C27.9281 10.1741 29.5251 9.00685 31.9529 8.38565C34.2906 7.78743 35.1362 7.69598 36.5288 7.89059ZM27.8281 16.8353C30.0572 18.5197 32.5612 19.5759 35.3073 19.99C36.028 20.0987 37.2634 20.1593 38.7664 20.1597L41.1045 20.1604L41.0508 24.0739C40.9935 28.2467 40.9104 29.0955 40.3476 31.2494C39.72 33.651 38.9831 35.0949 37.8214 36.1988C36.9657 37.0119 36.3094 37.4073 35.1391 37.8143C34.4234 38.0633 34.1066 38.1067 33.0091 38.1067C31.9116 38.1067 31.5947 38.0633 30.879 37.8143C29.6249 37.378 29.0074 36.9892 28.0714 36.0466C27.0906 35.0588 26.5798 34.1582 26.0115 32.4149C25.1559 29.7902 24.9373 27.8837 24.9373 23.0478V19.5399L25.9026 17.8793C26.4334 16.966 26.9003 16.2188 26.9401 16.2188C26.9798 16.2188 27.3795 16.4962 27.8281 16.8353ZM23.1436 25.1156V27.368H22.8335C22.3606 27.368 21.7645 26.9985 21.5463 26.5701C21.2637 26.0157 21.269 24.1936 21.5547 23.6585C21.7855 23.2262 22.3691 22.8632 22.8335 22.8632H23.1436V25.1156ZM43.8766 23.069C44.4867 23.3977 44.6683 23.8672 44.6683 25.1156C44.6683 25.9401 44.6208 26.2779 44.4635 26.5726C44.2327 27.005 43.649 27.368 43.1847 27.368H42.8746V25.1156V22.8632H43.1847C43.3552 22.8632 43.6665 22.9558 43.8766 23.069ZM30.5988 39.6568C31.2589 39.8667 31.6417 39.9064 33.0091 39.9064C34.6474 39.9064 34.7074 39.8963 36.4004 39.3433C36.5699 39.2879 36.5965 39.3571 36.5965 39.853V40.4267L34.8464 41.8369C33.8839 42.6125 33.0571 43.2471 33.0091 43.2471C32.9611 43.2471 32.1343 42.6125 31.1717 41.8369L29.4216 40.4267V39.853C29.4216 39.3571 29.4483 39.2879 29.6178 39.3433C29.7258 39.3785 30.1671 39.5196 30.5988 39.6568ZM30.3612 43.5242L31.3415 44.3082L29.9612 45.0036L28.5808 45.6991L28.5457 44.7827C28.5137 43.9469 28.5916 43.4525 28.8717 42.7122C28.9893 42.4015 28.8892 42.347 30.3612 43.5242ZM37.3161 43.2055C37.4454 43.6062 37.4925 44.0767 37.47 44.7412L37.4374 45.699L36.0574 45.0038L34.6775 44.3085L35.8315 43.3876C36.4663 42.8811 37.018 42.5029 37.0575 42.5471C37.0971 42.5914 37.2135 42.8877 37.3161 43.2055ZM24.2496 44.3458C21.6503 47.2596 20.6031 48.486 20.5127 48.7224C20.4234 48.956 20.6149 49.6414 21.5961 52.6021L22.7882 56.1981H18.4816H14.1749V54.6727C14.1749 53.2032 14.1648 53.137 13.8997 52.8708C13.5357 52.505 13.0204 52.505 12.6564 52.8708C12.3913 53.137 12.3812 53.2032 12.3812 54.6727V56.1981H10.6617H8.94216L9.09553 55.1564C9.3036 53.7436 9.42086 53.341 9.8832 52.4533C10.1401 51.9599 10.5315 51.4558 10.9979 51.0176C11.6597 50.3956 12.2194 50.0888 18.0746 47.1382C21.5716 45.3761 24.4765 43.9317 24.5299 43.9285C24.5834 43.9254 24.4573 44.1131 24.2496 44.3458ZM47.9177 47.1325C53.8067 50.0933 54.3574 50.3946 55.0203 51.0175C55.4867 51.4558 55.878 51.9599 56.135 52.4533C56.5973 53.341 56.7146 53.7436 56.9227 55.1564L57.076 56.1981H55.3565H53.637V54.6727C53.637 53.2032 53.6269 53.137 53.3618 52.8708C52.9977 52.505 52.4825 52.505 52.1185 52.8708C51.8533 53.137 51.8433 53.2032 51.8433 54.6727V56.1981H47.5366H43.23L44.4161 52.6198C45.2611 50.0707 45.5807 48.9613 45.5273 48.7626C45.4862 48.6093 45.0868 48.0743 44.64 47.574C42.4079 45.0743 41.4072 43.9228 41.4674 43.9228C41.5039 43.9228 44.4066 45.3671 47.9177 47.1325ZM26.731 50.29V56.2066L25.7033 56.1742L24.6756 56.1418L23.5247 52.6748L22.3738 49.2076L24.5132 46.7905C25.6898 45.461 26.6702 44.3732 26.6917 44.3732C26.7133 44.3732 26.731 47.0358 26.731 50.29ZM41.5111 46.7886L43.6456 49.2039L42.494 52.6728L41.3425 56.1418L40.3148 56.1742L39.2871 56.2066V50.29C39.2871 47.0358 39.3073 44.3732 39.332 44.3732C39.3567 44.3732 40.3373 45.4601 41.5111 46.7886ZM33.848 45.9182C34.3116 46.1487 34.6907 46.3668 34.6907 46.4031C34.6907 46.4394 34.5725 46.8211 34.428 47.2512L34.1655 48.0333H33.0081H31.8507L31.5774 47.2099C31.4271 46.7569 31.322 46.3701 31.3438 46.3504C31.3832 46.3147 32.929 45.5156 32.9792 45.5049C32.9936 45.5019 33.3845 45.6879 33.848 45.9182ZM30.0109 48.2153L30.2929 49.073L29.9157 52.4385C29.7083 54.2895 29.5374 55.8927 29.5361 56.001C29.5342 56.1591 29.4341 56.1981 29.0292 56.1981H28.5248V51.9771V47.7561L29.0573 47.4818C29.3502 47.331 29.6211 47.2413 29.6593 47.2826C29.6975 47.3238 29.8557 47.7436 30.0109 48.2153ZM37.4934 51.9769V56.1981H36.9889C36.5841 56.1981 36.484 56.1591 36.4821 56.001C36.4807 55.8927 36.3098 54.2886 36.1022 52.4363L35.7247 49.0687L35.9933 48.2695C36.1411 47.8299 36.2857 47.4055 36.3148 47.3264C36.3539 47.2197 36.5131 47.2566 36.9305 47.469L37.4934 47.7556V51.9769ZM34.0181 50.0553C34.0181 50.2418 34.5384 54.9914 34.6386 55.7195L34.7045 56.1981H33.0091H31.3137L31.3796 55.7195C31.4798 54.9914 32.0001 50.2418 32.0001 50.0553C32.0001 49.9242 32.2011 49.8915 33.0091 49.8915C33.8171 49.8915 34.0181 49.9242 34.0181 50.0553Z" fill="#60B6E3"/></svg>