<svg xmlns="http://www.w3.org/2000/svg" width="65" height="65" viewBox="0 0 65 65" fill="none">
	<path fill-rule="evenodd" clip-rule="evenodd" d="M21.2328 3.05117C17.7301 3.49311 14.0422 4.94482 11.3405 6.94534C9.84297 8.05407 7.80828 10.1144 6.79164 11.5513C5.22659 13.7631 3.95845 16.6835 3.36323 19.4464C2.98306 21.2105 2.94905 25.1896 3.29884 26.9692C3.58746 28.4371 4.20841 30.474 4.69461 31.5475C4.90047 32.0022 5.06897 32.4946 5.06897 32.6419C5.06897 32.7893 4.60345 35.1013 4.03448 37.7799C3.46552 40.4585 3 42.7778 3 42.9338C3 43.3095 3.55642 43.8526 3.94125 43.8526C4.10987 43.8526 6.45168 43.3819 9.14534 42.8067C11.839 42.2314 14.1913 41.7895 14.3727 41.8244C14.5541 41.8595 15.2172 42.1027 15.8463 42.3648C17.1815 42.9214 19.5641 43.5493 20.8117 43.6734C22.2283 43.8143 22.2151 43.8025 22.3152 45.0036C22.5476 47.791 23.7857 51.1404 25.5962 53.8791C30.8297 61.7955 41.0335 65.0686 49.8103 61.646C51.9919 60.7953 51.364 60.7686 56.8832 61.9465C59.5982 62.526 61.9318 63 62.0691 63C62.5342 63 63 62.5061 63 62.0126C63 61.7645 62.5345 59.4214 61.9655 56.8059C61.3965 54.1904 60.931 51.9315 60.931 51.786C60.931 51.6406 61.0995 51.1496 61.3054 50.695C61.7916 49.6214 62.4125 47.5845 62.7012 46.1167C63.0522 44.3301 63.0169 40.3585 62.6342 38.5807C61.4555 33.1077 58.399 28.5538 53.8836 25.5438C51.2697 23.8013 48.4911 22.7469 45.363 22.3104C44.5818 22.2013 43.9275 22.0969 43.9089 22.0784C43.8903 22.0598 43.7815 21.406 43.6671 20.6256C43.5526 19.8453 43.3737 18.8725 43.2693 18.4639C42.69 16.1952 41.4398 13.4913 40.0704 11.5449C39.0463 10.0891 36.7468 7.78847 35.2918 6.76382C33.0742 5.20202 30.1346 3.92134 27.4602 3.35158C26.238 3.09127 22.3874 2.90549 21.2328 3.05117ZM27.0149 5.42092C30.6278 6.15758 33.7122 7.82366 36.3671 10.4726C39.0455 13.1451 40.8158 16.4986 41.4901 20.1771C41.7954 21.8423 41.7954 24.9806 41.4901 26.6458C40.8158 30.3243 39.0455 33.6778 36.3671 36.3503C33.0444 39.6657 29.0491 41.4455 24.2716 41.7384C21.5121 41.9076 17.8915 41.1629 15.4459 39.923C15.0773 39.7362 14.6444 39.5832 14.4838 39.5832C14.3233 39.5832 12.252 39.9969 9.88112 40.5025C7.51022 41.008 5.53966 41.3911 5.50228 41.3536C5.46478 41.3161 5.84664 39.342 6.35069 36.9667C6.85474 34.5912 7.26724 32.518 7.26724 32.3594C7.26724 32.2008 7.1144 31.7693 6.92767 31.4006C5.23746 28.0634 4.67741 23.6173 5.46194 19.7647C6.89095 12.7471 12.4764 7.04573 19.4365 5.49971C21.7896 4.97703 24.69 4.94689 27.0149 5.42092ZM21.0388 13.6398C18.2877 14.241 16.3044 16.4514 15.9855 19.2715C15.9163 19.8826 15.9433 20.1119 16.1153 20.3745C16.4289 20.8532 16.8822 20.9916 17.4118 20.7703C17.8883 20.571 17.9325 20.4798 18.1148 19.3183C18.3436 17.8618 19.1754 16.6897 20.4569 16.0185C20.9553 15.7574 21.2245 15.7137 22.3319 15.7137C23.5236 15.7137 23.6793 15.7438 24.3175 16.0974C25.2074 16.5906 25.9363 17.4243 26.2841 18.3468C26.6739 19.3804 26.5981 20.9262 26.1177 21.7415C25.669 22.503 25.2853 22.8422 23.7543 23.831C21.7366 25.1342 21.3579 25.6225 21.2714 27.0329C21.2121 28.0024 21.382 28.4347 21.9251 28.6951C22.7268 29.0797 23.431 28.341 23.431 27.1153C23.431 26.4939 23.4459 26.4798 25.3707 25.2869C26.9121 24.3314 28.0106 23.0281 28.4153 21.6745C28.703 20.7119 28.673 19.0017 28.35 17.9583C27.6778 15.7861 25.8314 14.114 23.5773 13.6359C22.5425 13.4165 22.057 13.4173 21.0388 13.6398ZM45.8664 24.5198C49.3832 25.1301 52.838 26.9601 55.499 29.6225C60.0994 34.2251 61.9107 40.7052 60.3481 46.9704C60.0008 48.3628 59.5766 49.5521 59.0723 50.548C58.8856 50.9167 58.7324 51.3513 58.732 51.5138C58.7315 51.6763 59.1445 53.749 59.6496 56.12C60.1547 58.4909 60.5379 60.4608 60.5013 60.4974C60.4647 60.534 58.5039 60.1514 56.1438 59.6473C53.7837 59.1431 51.7213 58.7307 51.5607 58.7307C51.4 58.7307 50.7804 58.959 50.1838 59.2382C48.0381 60.2423 44.9043 60.9339 42.53 60.9274C41.3196 60.9242 39.1474 60.6251 37.8782 60.287C30.6937 58.3729 25.2393 52.1005 24.3594 44.7411L24.2568 43.8833L25.1047 43.7989C27.469 43.5638 29.8016 42.9607 31.6766 42.0996C32.5234 41.7108 32.5969 41.6958 32.4202 41.9482C32.1278 42.366 32.1776 42.9122 32.5416 43.2762L32.8589 43.5939H42.569H52.279L52.5963 43.2762C52.7965 43.0761 52.9138 42.8109 52.9138 42.5589C52.9138 42.3068 52.7965 42.0416 52.5963 41.8415L52.279 41.5239H42.6189H32.9587L33.9851 40.9067C34.5495 40.5673 35.3881 40.005 35.8484 39.6572C36.7978 38.9399 39.1085 36.638 39.5942 35.9257L39.9167 35.4526L46.1033 35.4156L52.2899 35.3786L52.6018 35.0156C53.0395 34.5063 53.0088 33.9938 52.5159 33.5789L52.1181 33.2439H46.7616C43.8155 33.2439 41.4054 33.2003 41.4057 33.1469C41.4059 33.0934 41.5116 32.8752 41.6405 32.6617C42.5947 31.0821 43.552 27.78 43.8063 25.1904L43.8922 24.3171L44.2973 24.3175C44.5203 24.3177 45.2263 24.4088 45.8664 24.5198ZM21.5502 30.5859C20.8794 31.2571 21.3432 32.4677 22.2712 32.4677C22.7862 32.4677 23.431 31.8562 23.431 31.368C23.431 31.161 23.2809 30.8744 23.0531 30.6465C22.5707 30.1639 21.995 30.1407 21.5502 30.5859ZM32.4922 50.1447C32.0408 50.7189 32.1817 51.3779 32.8298 51.7233C33.2338 51.9385 51.9041 51.9385 52.3081 51.7233C52.9562 51.3779 53.0972 50.7189 52.6457 50.1447L52.3778 49.8038H42.569H32.7601L32.4922 50.1447Z" fill="#60B6E3" />
</svg>
